<svg width="59" height="41" viewBox="0 0 59 41" fill="none" xmlns="http://www.w3.org/2000/svg">
                <path opacity="0.5" d="M41 0.375H18C9.86826 0.375 5.80241 0.375001 3.27621 2.90121C0.75 5.42741 0.75 9.49327 0.75 17.625V23.375C0.75 31.5067 0.75 35.5725 3.27621 38.0987C5.80241 40.625 9.86826 40.625 18 40.625H41C49.1316 40.625 53.1975 40.625 55.7237 38.0987C58.25 35.5725 58.25 31.5067 58.25 23.375V17.625C58.25 9.49327 58.25 5.42741 55.7237 2.90121C53.1975 0.375001 49.1316 0.375 41 0.375Z" fill="#9393B8"/>
                <path d="M12.25 14.75C13.8378 14.75 15.125 13.4628 15.125 11.875C15.125 10.2872 13.8378 9 12.25 9C10.6622 9 9.375 10.2872 9.375 11.875C9.375 13.4628 10.6622 14.75 12.25 14.75Z" fill="#9393B8"/>
                <path d="M12.25 23.375C13.8378 23.375 15.125 22.0879 15.125 20.5C15.125 18.9121 13.8378 17.625 12.25 17.625C10.6622 17.625 9.375 18.9121 9.375 20.5C9.375 22.0879 10.6622 23.375 12.25 23.375Z" fill="#9393B8"/>
                <path d="M20.875 23.375C22.4628 23.375 23.75 22.0879 23.75 20.5C23.75 18.9121 22.4628 17.625 20.875 17.625C19.2872 17.625 18 18.9121 18 20.5C18 22.0879 19.2872 23.375 20.875 23.375Z" fill="#9393B8"/>
                <path d="M20.875 14.75C22.4628 14.75 23.75 13.4628 23.75 11.875C23.75 10.2872 22.4628 9 20.875 9C19.2872 9 18 10.2872 18 11.875C18 13.4628 19.2872 14.75 20.875 14.75Z" fill="#9393B8"/>
                <path d="M29.5 14.75C31.0879 14.75 32.375 13.4628 32.375 11.875C32.375 10.2872 31.0879 9 29.5 9C27.9121 9 26.625 10.2872 26.625 11.875C26.625 13.4628 27.9121 14.75 29.5 14.75Z" fill="#9393B8"/>
                <path d="M29.5 23.375C31.0879 23.375 32.375 22.0879 32.375 20.5C32.375 18.9121 31.0879 17.625 29.5 17.625C27.9121 17.625 26.625 18.9121 26.625 20.5C26.625 22.0879 27.9121 23.375 29.5 23.375Z" fill="#9393B8"/>
                <path d="M38.125 14.75C39.7129 14.75 41 13.4628 41 11.875C41 10.2872 39.7129 9 38.125 9C36.5371 9 35.25 10.2872 35.25 11.875C35.25 13.4628 36.5371 14.75 38.125 14.75Z" fill="#9393B8"/>
                <path d="M38.125 23.375C39.7129 23.375 41 22.0879 41 20.5C41 18.9121 39.7129 17.625 38.125 17.625C36.5371 17.625 35.25 18.9121 35.25 20.5C35.25 22.0879 36.5371 23.375 38.125 23.375Z" fill="#9393B8"/>
                <path d="M46.75 14.75C48.3379 14.75 49.625 13.4628 49.625 11.875C49.625 10.2872 48.3379 9 46.75 9C45.1621 9 43.875 10.2872 43.875 11.875C43.875 13.4628 45.1621 14.75 46.75 14.75Z" fill="#9393B8"/>
                <path d="M46.75 23.375C48.3379 23.375 49.625 22.0879 49.625 20.5C49.625 18.9121 48.3379 17.625 46.75 17.625C45.1621 17.625 43.875 18.9121 43.875 20.5C43.875 22.0879 45.1621 23.375 46.75 23.375Z" fill="#9393B8"/>
                <path d="M46.0312 32C46.0312 33.1908 45.0658 34.1562 43.875 34.1562H15.125C13.9341 34.1562 12.9688 33.1908 12.9688 32C12.9688 30.8092 13.9341 29.8438 15.125 29.8438H43.875C45.0658 29.8438 46.0312 30.8092 46.0312 32Z" fill="#9393B8"/>
</svg>