<svg width="45" height="45" viewBox="0 0 63 63" fill="none" xmlns="http://www.w3.org/2000/svg">
    <path fill-rule="evenodd" clip-rule="evenodd" d="M37.4818 5.64963C36.5098 5.25 35.2774 5.25 32.8125 5.25C30.3476 5.25 29.1152 5.25 28.1431 5.64963C26.8469 6.18248 25.8171 7.20452 25.2802 8.4909C25.0351 9.07814 24.9392 9.76106 24.9017 10.7572C24.8465 12.2212 24.09 13.5762 22.8117 14.3087C21.5333 15.0411 19.9727 15.0138 18.6677 14.3292C17.7796 13.8634 17.1357 13.6044 16.5007 13.5214C15.1097 13.3397 13.703 13.7138 12.5899 14.5614C11.7551 15.1971 11.1389 16.2564 9.90648 18.3748C8.67407 20.4933 8.05788 21.5525 7.92054 22.5879C7.73739 23.9684 8.11434 25.3645 8.96844 26.4692C9.35828 26.9735 9.90614 27.3971 10.7565 27.9274C12.0065 28.707 12.8108 30.035 12.8108 31.5C12.8107 32.965 12.0064 34.2927 10.7565 35.0721C9.90601 35.6026 9.35804 36.0266 8.96818 36.5308C8.11408 37.6354 7.73716 39.0314 7.92028 40.4119C8.05762 41.4472 8.67383 42.5066 9.90622 44.625C11.1386 46.7434 11.7548 47.8028 12.5897 48.4383C13.7027 49.286 15.1095 49.66 16.5005 49.4784C17.1354 49.3954 17.7793 49.1363 18.6672 48.6707C19.9724 47.9861 21.5331 47.9588 22.8116 48.6911C24.09 49.4238 24.8465 50.7788 24.9017 52.243C24.9392 53.2389 25.0351 53.922 25.2802 54.5092C25.8171 55.7954 26.8469 56.8176 28.1431 57.3505C29.1152 57.75 30.3476 57.75 32.8125 57.75C35.2774 57.75 36.5098 57.75 37.4818 57.3505C38.7781 56.8176 39.8079 55.7954 40.3447 54.5092C40.5898 53.922 40.6859 53.2389 40.7235 52.2428C40.7786 50.7788 41.5348 49.4238 42.8132 48.6911C44.0916 47.9585 45.6524 47.9861 46.9576 48.6707C47.8456 49.1363 48.4893 49.3952 49.1243 49.4781C50.5152 49.66 51.922 49.286 53.035 48.4383C53.87 47.8026 54.4861 46.7434 55.7185 44.6247C56.951 42.5064 57.567 41.4472 57.7046 40.4119C57.8876 39.0314 57.5106 37.6352 56.6567 36.5306C56.2666 36.0263 55.7188 35.6024 54.8683 35.0721C53.6185 34.2927 52.8142 32.9648 52.8142 31.4997C52.8142 30.0347 53.6185 28.7073 54.8683 27.9279C55.719 27.3974 56.2669 26.9737 56.6569 26.4692C57.5109 25.3647 57.8878 23.9685 57.7048 22.588C57.5673 21.5527 56.9512 20.4935 55.7188 18.375C54.4863 16.2565 53.8702 15.1973 53.0352 14.5616C51.9222 13.7139 50.5155 13.3399 49.1245 13.5216C48.4895 13.6046 47.8456 13.8636 46.9578 14.3294C45.6527 15.0139 44.0919 15.0413 42.8135 14.3088C41.5351 13.5763 40.7786 12.2211 40.7232 10.7571C40.6857 9.76101 40.5898 9.07812 40.3447 8.4909C39.8079 7.20452 38.7781 6.18248 37.4818 5.64963ZM32.8125 39.375C37.1949 39.375 40.7473 35.8494 40.7473 31.5C40.7473 27.1506 37.1949 23.625 32.8125 23.625C28.4301 23.625 24.8775 27.1506 24.8775 31.5C24.8775 35.8494 28.4301 39.375 32.8125 39.375Z" fill="#1C274C"/>
</svg>